<svg xmlns="http://www.w3.org/2000/svg" viewBox="0 0 61.39 61.39"><defs><style>.cls-1{fill:#fff;}.cls-2{fill:#616161;}.cls-3{fill:#7facd9;}</style></defs><title>eestiK_btn</title><g id="Layer_2" data-name="Layer 2"><g id="KEELENUPUD"><path class="cls-1" d="M59.25,41.93Z"/><path class="cls-2" d="M61.39,30.69a30.65,30.65,0,0,0-2-11H2a30.67,30.67,0,0,0,.09,22.23H59.25A30.42,30.42,0,0,0,61.39,30.69Z"/><path class="cls-3" d="M30.69,0A30.69,30.69,0,0,0,2,19.7H59.35A30.7,30.7,0,0,0,30.69,0Z"/><path class="cls-1" d="M30.69,61.39A30.69,30.69,0,0,0,59.25,41.93H2.13A30.71,30.71,0,0,0,30.69,61.39Z"/></g></g></svg>