<svg xmlns="http://www.w3.org/2000/svg" viewBox="0 0 61.39 61.39"><defs><style>.cls-1{fill:#cf5b69;}.cls-2{fill:#fff;}.cls-3{fill:#30467d;}</style></defs><title>ingliseK_btn</title><g id="Layer_2" data-name="Layer 2"><g id="KEELENUPUD"><path class="cls-1" d="M37,37.06H60.72a30.68,30.68,0,0,0,0-12.61H37c0-.19,0-.32,0-.46V.65a30.9,30.9,0,0,0-12.61,0v23.8H.64A30.5,30.5,0,0,0,0,30.69a31.07,31.07,0,0,0,.66,6.37h23.7c0,.18,0,.31,0,.45V60.74a30.9,30.9,0,0,0,12.61,0V37.06Z"/><path class="cls-2" d="M24.39,24.45V.65a30.28,30.28,0,0,0-4.24,1.21c0,2.57,0,5.14,0,7.71v8.78l-.43-.18L6.64,11.64A29.93,29.93,0,0,0,3.21,17l5.66,2.83a1.5,1.5,0,0,1,.47.33H1.85A30.17,30.17,0,0,0,.64,24.45H24.39Z"/><path class="cls-2" d="M52.05,41.31h.48c2.32,0,4.65,0,7,0a30.06,30.06,0,0,0,1.22-4.25H37V60.74a31.14,31.14,0,0,0,4.23-1.21c0-2.53,0-5.07,0-7.6V43.15l.43.18,13,6.5a30.3,30.3,0,0,0,3.45-5.39l-5.62-2.81A1.6,1.6,0,0,1,52.05,41.31Z"/><path class="cls-2" d="M37,24.45H60.75A30.34,30.34,0,0,0,58.15,17l-5.93,3a2.29,2.29,0,0,1-1,.23c-2.68,0-5.37,0-8.06,0h-.5a.29.29,0,0,1,0-.09l.52-.28L56,13.39c-.41-.6-.85-1.19-1.3-1.76l-13,6.49-.52.24V1.86A32.27,32.27,0,0,0,37,.65V24C37,24.13,37,24.26,37,24.45Z"/><path class="cls-2" d="M24.36,37.06H.66a30.93,30.93,0,0,0,2.62,7.43l5.89-2.94a2.28,2.28,0,0,1,1-.23c2.69,0,5.38,0,8.06,0h.51a.19.19,0,0,1,0,.08l-.53.28q-6.4,3.21-12.82,6.41c.42.6.85,1.19,1.31,1.76l12.9-6.46.53-.24V59.52a30.06,30.06,0,0,0,4.25,1.22V37.51C24.39,37.37,24.37,37.24,24.36,37.06Z"/><path class="cls-3" d="M20.14,18.35V9.57c0-2.57,0-5.14,0-7.71A30.75,30.75,0,0,0,6.64,11.64l13.07,6.53Z"/><path class="cls-3" d="M41.25,18.36l.52-.24,13-6.49A30.69,30.69,0,0,0,41.25,1.86v16.5Z"/><path class="cls-3" d="M20.14,43.14l-.53.24L6.71,49.84a30.73,30.73,0,0,0,13.43,9.68V43.14Z"/><path class="cls-3" d="M41.25,43.15v8.78c0,2.53,0,5.07,0,7.6a30.7,30.7,0,0,0,13.45-9.7l-13-6.5Z"/><path class="cls-1" d="M42.64,20.11a.29.29,0,0,0,0,.09h.5c2.69,0,5.38,0,8.06,0a2.29,2.29,0,0,0,1-.23l5.93-3A29.34,29.34,0,0,0,56,13.39L43.16,19.83Z"/><path class="cls-1" d="M18.75,41.39a.19.19,0,0,0,0-.08h-.51c-2.68,0-5.37,0-8.06,0a2.28,2.28,0,0,0-1,.23L3.28,44.49A31.34,31.34,0,0,0,5.4,48.08q6.42-3.19,12.82-6.41Z"/><path class="cls-1" d="M8.86,20.2h.48a1.5,1.5,0,0,0-.47-.33L3.21,17a29.32,29.32,0,0,0-1.36,3.15Z"/><path class="cls-1" d="M52.53,41.31h-.48a1.6,1.6,0,0,0,.46.32l5.62,2.81a30.23,30.23,0,0,0,1.37-3.13C57.18,41.3,54.85,41.31,52.53,41.31Z"/></g></g></svg>